{
	"asset":{
		"generator":"Khronos glTF Blender I/O v4.1.63",
		"version":"2.0"
	},
	"extensionsUsed":[
		"KHR_materials_emissive_strength"
	],
	"scene":0,
	"scenes":[
		{
			"name":"Scene",
			"nodes":[
				0,
				1,
				2,
				3,
				4,
				5,
				6,
				7
			]
		}
	],
	"nodes":[
		{
			"mesh":0,
			"name":"Cube",
			"scale":[
				3.433466672897339,
				1.8738460540771484,
				1.8738460540771484
			],
			"translation":[
				0,
				1.9696626663208008,
				0
			]
		},
		{
			"mesh":1,
			"name":"Cube.001",
			"scale":[
				1.6267318725585938,
				0.877763032913208,
				0.04533057659864426
			],
			"translation":[
				0,
				5.075331687927246,
				0
			]
		},
		{
			"mesh":2,
			"name":"Circle",
			"rotation":[
				0.7071068286895752,
				0,
				0,
				0.7071068286895752
			],
			"scale":[
				0.43522000312805176,
				0.43522000312805176,
				0.43522000312805176
			],
			"translation":[
				0,
				4.660086631774902,
				-0.07605323195457458
			]
		},
		{
			"mesh":3,
			"name":"Cube.002",
			"rotation":[
				0,
				0.11162073910236359,
				0,
				0.9937509894371033
			],
			"scale":[
				1,
				0.00913042388856411,
				0.2884247303009033
			],
			"translation":[
				-0.20111531019210815,
				3.864640712738037,
				1.0076943635940552
			]
		},
		{
			"name":"Empty",
			"rotation":[
				0.7071068286895752,
				0,
				0,
				0.7071068286895752
			],
			"translation":[
				0.9229416847229004,
				0.9678067564964294,
				0
			]
		},
		{
			"mesh":4,
			"name":"Cube.003",
			"rotation":[
				0,
				0.8667765259742737,
				0,
				0.49869677424430847
			],
			"scale":[
				0.04176616296172142,
				0.0550169013440609,
				0.055016908794641495
			],
			"translation":[
				1.2038708925247192,
				3.92252516746521,
				0.7653809785842896
			]
		},
		{
			"name":"Empty.001",
			"rotation":[
				0.5,
				0.5,
				-0.4999999403953552,
				0.5000000596046448
			],
			"scale":[
				0.6323870420455933,
				0.6323870420455933,
				0.6323870420455933
			],
			"translation":[
				0,
				0.7627086639404297,
				0.9229416847229004
			]
		},
		{
			"mesh":5,
			"name":"Cube.004",
			"scale":[
				0.3734891712665558,
				0.01668076030910015,
				0.5235323905944824
			],
			"translation":[
				1.2537583112716675,
				3.851081371307373,
				0.7936478853225708
			]
		}
	],
	"materials":[
		{
			"doubleSided":true,
			"name":"Material",
			"pbrMetallicRoughness":{
				"baseColorTexture":{
					"index":0
				},
				"metallicFactor":0
			}
		},
		{
			"doubleSided":true,
			"name":"Material.001",
			"pbrMetallicRoughness":{
				"baseColorFactor":[
					0.1273600310087204,
					0.1273600310087204,
					0.1273600310087204,
					1
				],
				"roughnessFactor":0.5
			}
		},
		{
			"doubleSided":true,
			"emissiveFactor":[
				1,
				1,
				1
			],
			"extensions":{
				"KHR_materials_emissive_strength":{
					"emissiveStrength":2.799999713897705
				}
			},
			"name":"Material.002",
			"pbrMetallicRoughness":{
				"baseColorFactor":[
					0.800000011920929,
					0.800000011920929,
					0.800000011920929,
					1
				],
				"metallicFactor":0,
				"roughnessFactor":0.5
			}
		},
		{
			"doubleSided":true,
			"name":"Material.004",
			"pbrMetallicRoughness":{
				"baseColorFactor":[
					0,
					0,
					0,
					1
				],
				"metallicFactor":0,
				"roughnessFactor":0.5
			}
		},
		{
			"doubleSided":true,
			"emissiveFactor":[
				1,
				0.08670778572559357,
				0.03500758856534958
			],
			"extensions":{
				"KHR_materials_emissive_strength":{
					"emissiveStrength":4.100000381469727
				}
			},
			"name":"Material.011",
			"pbrMetallicRoughness":{
				"baseColorFactor":[
					0.8002194166183472,
					0,
					0,
					1
				],
				"metallicFactor":0,
				"roughnessFactor":0.5
			}
		},
		{
			"doubleSided":true,
			"name":"Material.003",
			"pbrMetallicRoughness":{
				"baseColorTexture":{
					"index":1
				},
				"metallicFactor":0,
				"roughnessFactor":0.5
			}
		},
		{
			"doubleSided":true,
			"name":"Material.007",
			"pbrMetallicRoughness":{
				"baseColorFactor":[
					0.0508740171790123,
					0.0508740171790123,
					0.0508740171790123,
					1
				],
				"metallicFactor":0,
				"roughnessFactor":0.5
			}
		},
		{
			"doubleSided":true,
			"emissiveFactor":[
				0.007878689095377922,
				1,
				0
			],
			"extensions":{
				"KHR_materials_emissive_strength":{
					"emissiveStrength":4.599999904632568
				}
			},
			"name":"Material.010",
			"pbrMetallicRoughness":{
				"baseColorFactor":[
					0.17085617780685425,
					0.8004578351974487,
					0.06006643548607826,
					1
				],
				"metallicFactor":0,
				"roughnessFactor":0.5
			}
		},
		{
			"doubleSided":true,
			"emissiveFactor":[
				1,
				0,
				0.01203332468867302
			],
			"extensions":{
				"KHR_materials_emissive_strength":{
					"emissiveStrength":4.599999904632568
				}
			},
			"name":"Material.008",
			"pbrMetallicRoughness":{
				"baseColorFactor":[
					0.8006061315536499,
					0,
					0.004119591787457466,
					1
				],
				"metallicFactor":0,
				"roughnessFactor":0.5
			}
		},
		{
			"doubleSided":true,
			"name":"Material.005",
			"pbrMetallicRoughness":{
				"baseColorFactor":[
					0,
					0,
					0,
					1
				],
				"metallicFactor":0,
				"roughnessFactor":0.5
			}
		},
		{
			"doubleSided":true,
			"name":"Material.006",
			"pbrMetallicRoughness":{
				"baseColorFactor":[
					0.8006381988525391,
					0.09018923342227936,
					0.03420068696141243,
					1
				],
				"metallicFactor":0
			}
		},
		{
			"doubleSided":true,
			"name":"Material.012",
			"pbrMetallicRoughness":{
				"baseColorFactor":[
					0.011300979182124138,
					0.011300979182124138,
					0.011300979182124138,
					1
				],
				"roughnessFactor":0.5
			}
		},
		{
			"doubleSided":true,
			"name":"Material.013",
			"pbrMetallicRoughness":{
				"baseColorFactor":[
					0.048628222197294235,
					0.048628222197294235,
					0.048628222197294235,
					1
				],
				"metallicFactor":0
			}
		},
		{
			"doubleSided":true,
			"name":"Material.014",
			"pbrMetallicRoughness":{
				"baseColorFactor":[
					0.004037708044052124,
					0.002941699232906103,
					0.0031594070605933666,
					1
				],
				"metallicFactor":0
			}
		}
	],
	"meshes":[
		{
			"name":"Cube",
			"primitives":[
				{
					"attributes":{
						"POSITION":0,
						"NORMAL":1,
						"TEXCOORD_0":2
					},
					"indices":3,
					"material":0
				}
			]
		},
		{
			"name":"Cube.001",
			"primitives":[
				{
					"attributes":{
						"POSITION":4,
						"NORMAL":5,
						"TEXCOORD_0":6
					},
					"indices":7,
					"material":1
				},
				{
					"attributes":{
						"POSITION":8,
						"NORMAL":9,
						"TEXCOORD_0":10
					},
					"indices":11,
					"material":2
				}
			]
		},
		{
			"name":"Circle",
			"primitives":[
				{
					"attributes":{
						"POSITION":12,
						"NORMAL":13,
						"TEXCOORD_0":14
					},
					"indices":15,
					"material":1
				}
			]
		},
		{
			"name":"Cube.003",
			"primitives":[
				{
					"attributes":{
						"POSITION":16,
						"NORMAL":17,
						"TEXCOORD_0":18
					},
					"indices":19,
					"material":3
				},
				{
					"attributes":{
						"POSITION":20,
						"NORMAL":21,
						"TEXCOORD_0":22
					},
					"indices":23,
					"material":4
				},
				{
					"attributes":{
						"POSITION":24,
						"NORMAL":25,
						"TEXCOORD_0":26
					},
					"indices":27,
					"material":5
				},
				{
					"attributes":{
						"POSITION":28,
						"NORMAL":29,
						"TEXCOORD_0":30
					},
					"indices":31,
					"material":6
				},
				{
					"attributes":{
						"POSITION":32,
						"NORMAL":33,
						"TEXCOORD_0":34
					},
					"indices":35,
					"material":7
				},
				{
					"attributes":{
						"POSITION":36,
						"NORMAL":37,
						"TEXCOORD_0":38
					},
					"indices":31,
					"material":8
				},
				{
					"attributes":{
						"POSITION":39,
						"NORMAL":40,
						"TEXCOORD_0":41
					},
					"indices":42,
					"material":9
				},
				{
					"attributes":{
						"POSITION":43,
						"NORMAL":44,
						"TEXCOORD_0":45
					},
					"indices":46,
					"material":10
				}
			]
		},
		{
			"name":"Cube.044",
			"primitives":[
				{
					"attributes":{
						"POSITION":47,
						"NORMAL":48,
						"TEXCOORD_0":49
					},
					"indices":50,
					"material":11
				},
				{
					"attributes":{
						"POSITION":51,
						"NORMAL":52,
						"TEXCOORD_0":53
					},
					"indices":54,
					"material":12
				}
			]
		},
		{
			"name":"Cube.045",
			"primitives":[
				{
					"attributes":{
						"POSITION":55,
						"NORMAL":56,
						"TEXCOORD_0":57
					},
					"indices":58,
					"material":13
				}
			]
		}
	],
	"textures":[
		{
			"sampler":0,
			"source":0
		},
		{
			"sampler":0,
			"source":1
		}
	],
	"images":[
		{
			"mimeType":"image/jpeg",
			"name":"jon-moore-5fIoyoKlz7A-unsplash",
			"uri":"jon-moore-5fIoyoKlz7A-unsplash.jpg"
		},
		{
			"mimeType":"image/jpeg",
			"name":"5177YdNkkIL._AC_UF894,1000_QL80_",
			"uri":"5177YdNkkIL__AC_UF8941000_QL80_.jpg"
		}
	],
	"accessors":[
		{
			"bufferView":0,
			"componentType":5126,
			"count":124,
			"max":[
				1,
				1,
				1
			],
			"min":[
				-1,
				-1,
				-1
			],
			"type":"VEC3"
		},
		{
			"bufferView":1,
			"componentType":5126,
			"count":124,
			"type":"VEC3"
		},
		{
			"bufferView":2,
			"componentType":5126,
			"count":124,
			"type":"VEC2"
		},
		{
			"bufferView":3,
			"componentType":5123,
			"count":276,
			"type":"SCALAR"
		},
		{
			"bufferView":4,
			"componentType":5126,
			"count":36,
			"max":[
				1,
				1,
				0.982334315776825
			],
			"min":[
				-1,
				-1,
				-1
			],
			"type":"VEC3"
		},
		{
			"bufferView":5,
			"componentType":5126,
			"count":36,
			"type":"VEC3"
		},
		{
			"bufferView":6,
			"componentType":5126,
			"count":36,
			"type":"VEC2"
		},
		{
			"bufferView":7,
			"componentType":5123,
			"count":54,
			"type":"SCALAR"
		},
		{
			"bufferView":8,
			"componentType":5126,
			"count":4,
			"max":[
				0.9888134598731995,
				0.9668413400650024,
				0.4169333577156067
			],
			"min":[
				-0.9888134598731995,
				-0.9668413400650024,
				0.4169333577156067
			],
			"type":"VEC3"
		},
		{
			"bufferView":9,
			"componentType":5126,
			"count":4,
			"type":"VEC3"
		},
		{
			"bufferView":10,
			"componentType":5126,
			"count":4,
			"type":"VEC2"
		},
		{
			"bufferView":11,
			"componentType":5123,
			"count":6,
			"type":"SCALAR"
		},
		{
			"bufferView":12,
			"componentType":5126,
			"count":11584,
			"max":[
				0.99359530210495,
				0.7523491978645325,
				1.8809871673583984
			],
			"min":[
				-0.99359530210495,
				-1.2348413467407227,
				-0.9935951828956604
			],
			"type":"VEC3"
		},
		{
			"bufferView":13,
			"componentType":5126,
			"count":11584,
			"type":"VEC3"
		},
		{
			"bufferView":14,
			"componentType":5126,
			"count":11584,
			"type":"VEC2"
		},
		{
			"bufferView":15,
			"componentType":5123,
			"count":21540,
			"type":"SCALAR"
		},
		{
			"bufferView":16,
			"componentType":5126,
			"count":445,
			"max":[
				1.0268878936767578,
				1,
				1.112389087677002
			],
			"min":[
				-1.0268878936767578,
				-1,
				-0.9999999403953552
			],
			"type":"VEC3"
		},
		{
			"bufferView":17,
			"componentType":5126,
			"count":445,
			"type":"VEC3"
		},
		{
			"bufferView":18,
			"componentType":5126,
			"count":445,
			"type":"VEC2"
		},
		{
			"bufferView":19,
			"componentType":5123,
			"count":1923,
			"type":"SCALAR"
		},
		{
			"bufferView":20,
			"componentType":5126,
			"count":2085,
			"max":[
				0.9678241014480591,
				1,
				0.9467706680297852
			],
			"min":[
				-0.9929617643356323,
				0.06791067123413086,
				-0.8903472423553467
			],
			"type":"VEC3"
		},
		{
			"bufferView":21,
			"componentType":5126,
			"count":2085,
			"type":"VEC3"
		},
		{
			"bufferView":22,
			"componentType":5126,
			"count":2085,
			"type":"VEC2"
		},
		{
			"bufferView":23,
			"componentType":5123,
			"count":3135,
			"type":"SCALAR"
		},
		{
			"bufferView":24,
			"componentType":5126,
			"count":4160,
			"max":[
				0.9668240547180176,
				3.7844972610473633,
				0.9402636885643005
			],
			"min":[
				-0.9907498955726624,
				0.12872600555419922,
				-0.8868798613548279
			],
			"type":"VEC3"
		},
		{
			"bufferView":25,
			"componentType":5126,
			"count":4160,
			"type":"VEC3"
		},
		{
			"bufferView":26,
			"componentType":5126,
			"count":4160,
			"type":"VEC2"
		},
		{
			"bufferView":27,
			"componentType":5123,
			"count":6240,
			"type":"SCALAR"
		},
		{
			"bufferView":28,
			"componentType":5126,
			"count":192,
			"max":[
				0.806279718875885,
				1.1804704666137695,
				-0.6719832420349121
			],
			"min":[
				0.7855656743049622,
				0.2142748236656189,
				-0.7817269563674927
			],
			"type":"VEC3"
		},
		{
			"bufferView":29,
			"componentType":5126,
			"count":192,
			"type":"VEC3"
		},
		{
			"bufferView":30,
			"componentType":5126,
			"count":192,
			"type":"VEC2"
		},
		{
			"bufferView":31,
			"componentType":5123,
			"count":372,
			"type":"SCALAR"
		},
		{
			"bufferView":32,
			"componentType":5126,
			"count":384,
			"max":[
				0.8684218525886536,
				1.1804704666137695,
				-0.6719832420349121
			],
			"min":[
				0.661281406879425,
				0.2142748236656189,
				-0.7817269563674927
			],
			"type":"VEC3"
		},
		{
			"bufferView":33,
			"componentType":5126,
			"count":384,
			"type":"VEC3"
		},
		{
			"bufferView":34,
			"componentType":5126,
			"count":384,
			"type":"VEC2"
		},
		{
			"bufferView":35,
			"componentType":5123,
			"count":744,
			"type":"SCALAR"
		},
		{
			"bufferView":36,
			"componentType":5126,
			"count":192,
			"max":[
				0.7441375851631165,
				1.1804704666137695,
				-0.6719832420349121
			],
			"min":[
				0.7234235405921936,
				0.2142748236656189,
				-0.7817269563674927
			],
			"type":"VEC3"
		},
		{
			"bufferView":37,
			"componentType":5126,
			"count":192,
			"type":"VEC3"
		},
		{
			"bufferView":38,
			"componentType":5126,
			"count":192,
			"type":"VEC2"
		},
		{
			"bufferView":39,
			"componentType":5126,
			"count":288,
			"max":[
				0.962826669216156,
				4.529228687286377,
				-0.6236505508422852
			],
			"min":[
				0.8990812301635742,
				0.3134639263153076,
				-0.8446630239486694
			],
			"type":"VEC3"
		},
		{
			"bufferView":40,
			"componentType":5126,
			"count":288,
			"type":"VEC3"
		},
		{
			"bufferView":41,
			"componentType":5126,
			"count":288,
			"type":"VEC2"
		},
		{
			"bufferView":42,
			"componentType":5123,
			"count":474,
			"type":"SCALAR"
		},
		{
			"bufferView":43,
			"componentType":5126,
			"count":160,
			"max":[
				0.962826669216156,
				5.970008850097656,
				-0.6236505508422852
			],
			"min":[
				0.8990812301635742,
				4.422747611999512,
				-0.8446630239486694
			],
			"type":"VEC3"
		},
		{
			"bufferView":44,
			"componentType":5126,
			"count":160,
			"type":"VEC3"
		},
		{
			"bufferView":45,
			"componentType":5126,
			"count":160,
			"type":"VEC2"
		},
		{
			"bufferView":46,
			"componentType":5123,
			"count":282,
			"type":"SCALAR"
		},
		{
			"bufferView":47,
			"componentType":5126,
			"count":432,
			"max":[
				3.7621638774871826,
				1.0888735055923462,
				1.5505534410476685
			],
			"min":[
				-4.33563232421875,
				-0.9439229965209961,
				-1.672187328338623
			],
			"type":"VEC3"
		},
		{
			"bufferView":48,
			"componentType":5126,
			"count":432,
			"type":"VEC3"
		},
		{
			"bufferView":49,
			"componentType":5126,
			"count":432,
			"type":"VEC2"
		},
		{
			"bufferView":50,
			"componentType":5123,
			"count":1482,
			"type":"SCALAR"
		},
		{
			"bufferView":51,
			"componentType":5126,
			"count":130,
			"max":[
				2.505222797393799,
				0.8082938194274902,
				0.12193543463945389
			],
			"min":[
				1.974097490310669,
				0.27716881036758423,
				-0.12193640321493149
			],
			"type":"VEC3"
		},
		{
			"bufferView":52,
			"componentType":5126,
			"count":130,
			"type":"VEC3"
		},
		{
			"bufferView":53,
			"componentType":5126,
			"count":130,
			"type":"VEC2"
		},
		{
			"bufferView":54,
			"componentType":5123,
			"count":372,
			"type":"SCALAR"
		},
		{
			"bufferView":55,
			"componentType":5126,
			"count":1536,
			"max":[
				0.9929649829864502,
				0.9929649829864502,
				0.9929649829864502
			],
			"min":[
				-0.9929649829864502,
				-0.9929649829864502,
				-0.9929649829864502
			],
			"type":"VEC3"
		},
		{
			"bufferView":56,
			"componentType":5126,
			"count":1536,
			"type":"VEC3"
		},
		{
			"bufferView":57,
			"componentType":5126,
			"count":1536,
			"type":"VEC2"
		},
		{
			"bufferView":58,
			"componentType":5123,
			"count":2304,
			"type":"SCALAR"
		}
	],
	"bufferViews":[
		{
			"buffer":0,
			"byteLength":1488,
			"byteOffset":0,
			"target":34962
		},
		{
			"buffer":0,
			"byteLength":1488,
			"byteOffset":1488,
			"target":34962
		},
		{
			"buffer":0,
			"byteLength":992,
			"byteOffset":2976,
			"target":34962
		},
		{
			"buffer":0,
			"byteLength":552,
			"byteOffset":3968,
			"target":34963
		},
		{
			"buffer":0,
			"byteLength":432,
			"byteOffset":4520,
			"target":34962
		},
		{
			"buffer":0,
			"byteLength":432,
			"byteOffset":4952,
			"target":34962
		},
		{
			"buffer":0,
			"byteLength":288,
			"byteOffset":5384,
			"target":34962
		},
		{
			"buffer":0,
			"byteLength":108,
			"byteOffset":5672,
			"target":34963
		},
		{
			"buffer":0,
			"byteLength":48,
			"byteOffset":5780,
			"target":34962
		},
		{
			"buffer":0,
			"byteLength":48,
			"byteOffset":5828,
			"target":34962
		},
		{
			"buffer":0,
			"byteLength":32,
			"byteOffset":5876,
			"target":34962
		},
		{
			"buffer":0,
			"byteLength":12,
			"byteOffset":5908,
			"target":34963
		},
		{
			"buffer":0,
			"byteLength":139008,
			"byteOffset":5920,
			"target":34962
		},
		{
			"buffer":0,
			"byteLength":139008,
			"byteOffset":144928,
			"target":34962
		},
		{
			"buffer":0,
			"byteLength":92672,
			"byteOffset":283936,
			"target":34962
		},
		{
			"buffer":0,
			"byteLength":43080,
			"byteOffset":376608,
			"target":34963
		},
		{
			"buffer":0,
			"byteLength":5340,
			"byteOffset":419688,
			"target":34962
		},
		{
			"buffer":0,
			"byteLength":5340,
			"byteOffset":425028,
			"target":34962
		},
		{
			"buffer":0,
			"byteLength":3560,
			"byteOffset":430368,
			"target":34962
		},
		{
			"buffer":0,
			"byteLength":3846,
			"byteOffset":433928,
			"target":34963
		},
		{
			"buffer":0,
			"byteLength":25020,
			"byteOffset":437776,
			"target":34962
		},
		{
			"buffer":0,
			"byteLength":25020,
			"byteOffset":462796,
			"target":34962
		},
		{
			"buffer":0,
			"byteLength":16680,
			"byteOffset":487816,
			"target":34962
		},
		{
			"buffer":0,
			"byteLength":6270,
			"byteOffset":504496,
			"target":34963
		},
		{
			"buffer":0,
			"byteLength":49920,
			"byteOffset":510768,
			"target":34962
		},
		{
			"buffer":0,
			"byteLength":49920,
			"byteOffset":560688,
			"target":34962
		},
		{
			"buffer":0,
			"byteLength":33280,
			"byteOffset":610608,
			"target":34962
		},
		{
			"buffer":0,
			"byteLength":12480,
			"byteOffset":643888,
			"target":34963
		},
		{
			"buffer":0,
			"byteLength":2304,
			"byteOffset":656368,
			"target":34962
		},
		{
			"buffer":0,
			"byteLength":2304,
			"byteOffset":658672,
			"target":34962
		},
		{
			"buffer":0,
			"byteLength":1536,
			"byteOffset":660976,
			"target":34962
		},
		{
			"buffer":0,
			"byteLength":744,
			"byteOffset":662512,
			"target":34963
		},
		{
			"buffer":0,
			"byteLength":4608,
			"byteOffset":663256,
			"target":34962
		},
		{
			"buffer":0,
			"byteLength":4608,
			"byteOffset":667864,
			"target":34962
		},
		{
			"buffer":0,
			"byteLength":3072,
			"byteOffset":672472,
			"target":34962
		},
		{
			"buffer":0,
			"byteLength":1488,
			"byteOffset":675544,
			"target":34963
		},
		{
			"buffer":0,
			"byteLength":2304,
			"byteOffset":677032,
			"target":34962
		},
		{
			"buffer":0,
			"byteLength":2304,
			"byteOffset":679336,
			"target":34962
		},
		{
			"buffer":0,
			"byteLength":1536,
			"byteOffset":681640,
			"target":34962
		},
		{
			"buffer":0,
			"byteLength":3456,
			"byteOffset":683176,
			"target":34962
		},
		{
			"buffer":0,
			"byteLength":3456,
			"byteOffset":686632,
			"target":34962
		},
		{
			"buffer":0,
			"byteLength":2304,
			"byteOffset":690088,
			"target":34962
		},
		{
			"buffer":0,
			"byteLength":948,
			"byteOffset":692392,
			"target":34963
		},
		{
			"buffer":0,
			"byteLength":1920,
			"byteOffset":693340,
			"target":34962
		},
		{
			"buffer":0,
			"byteLength":1920,
			"byteOffset":695260,
			"target":34962
		},
		{
			"buffer":0,
			"byteLength":1280,
			"byteOffset":697180,
			"target":34962
		},
		{
			"buffer":0,
			"byteLength":564,
			"byteOffset":698460,
			"target":34963
		},
		{
			"buffer":0,
			"byteLength":5184,
			"byteOffset":699024,
			"target":34962
		},
		{
			"buffer":0,
			"byteLength":5184,
			"byteOffset":704208,
			"target":34962
		},
		{
			"buffer":0,
			"byteLength":3456,
			"byteOffset":709392,
			"target":34962
		},
		{
			"buffer":0,
			"byteLength":2964,
			"byteOffset":712848,
			"target":34963
		},
		{
			"buffer":0,
			"byteLength":1560,
			"byteOffset":715812,
			"target":34962
		},
		{
			"buffer":0,
			"byteLength":1560,
			"byteOffset":717372,
			"target":34962
		},
		{
			"buffer":0,
			"byteLength":1040,
			"byteOffset":718932,
			"target":34962
		},
		{
			"buffer":0,
			"byteLength":744,
			"byteOffset":719972,
			"target":34963
		},
		{
			"buffer":0,
			"byteLength":18432,
			"byteOffset":720716,
			"target":34962
		},
		{
			"buffer":0,
			"byteLength":18432,
			"byteOffset":739148,
			"target":34962
		},
		{
			"buffer":0,
			"byteLength":12288,
			"byteOffset":757580,
			"target":34962
		},
		{
			"buffer":0,
			"byteLength":4608,
			"byteOffset":769868,
			"target":34963
		}
	],
	"samplers":[
		{
			"magFilter":9729,
			"minFilter":9987
		}
	],
	"buffers":[
		{
			"byteLength":774476,
			"uri":"cvmodels.bin"
		}
	]
}
